<svg version="1.1" x="0px" y="0px" viewBox="0 0 372.078 372.078" style="enable-background:new 0 0 372.078 372.078;">
<g>
	<path d="M285.768,217.988h-21.074v-176c0-4.143-3.357-7.5-7.5-7.5h-52.44V7.5c0-4.143-3.357-7.5-7.5-7.5h-22.427
		c-4.143,0-7.5,3.357-7.5,7.5v26.988h-52.44c-4.143,0-7.5,3.357-7.5,7.5v176H86.311c-4.143,0-7.5,3.357-7.5,7.5v22.43
		c0,4.143,3.357,7.5,7.5,7.5h23.367l-22.27,107.641c-0.457,2.209,0.105,4.506,1.529,6.254c1.424,1.75,3.561,2.766,5.816,2.766
		h22.904c3.557,0,6.623-2.498,7.344-5.98l12.542-60.609h96.992l12.539,60.609c0.721,3.482,3.789,5.98,7.346,5.98h22.906
		c0.004-0.002,0.012-0.002,0.02,0c4.143,0,7.5-3.357,7.5-7.5c0-0.719-0.102-1.414-0.289-2.072L262.4,255.418h23.367
		c4.143,0,7.5-3.357,7.5-7.5v-22.43C293.268,221.346,289.91,217.988,285.768,217.988z M182.327,15h7.427v19.488h-7.427V15z
		 M122.387,49.488h127.307v168.5H122.387V49.488z M111.551,357.078h-7.588l21.033-101.66h7.588L111.551,357.078z M140.647,290.488
		l1.537-7.43h87.712l1.537,7.43H140.647z M145.288,268.059l2.615-12.641h76.275l2.615,12.641H145.288z M268.115,357.078h-7.588
		l-21.033-101.66h7.59L268.115,357.078z M278.268,240.418H93.811v-7.43h184.457V240.418z"/>
</g>
<g>
    <rect x="122.387" y="49.488" width="127.307" height="168.5" style="fill:[[]];"/>
</g>
</svg>
